<svg width="244" height="40" viewBox="0 0 244 40" fill="none" xmlns="http://www.w3.org/2000/svg">
<path d="M78.8111 5.00096C79.0334 5.00096 79.1445 5.11197 79.3667 5.22299C78.0333 5.77807 76.6998 7.22128 76.0331 10.3297L73.5886 10.9958C74.3664 8.7755 75.9221 5.00096 78.8111 5.00096ZM80.0334 6.11112C80.2556 6.77721 80.4779 7.55432 80.4779 8.7755C80.4779 8.88651 80.4779 8.88651 80.4779 8.99752L77.2555 9.88565C77.9222 7.55432 79.0334 6.55518 80.0334 6.11112ZM82.9225 8.1094L81.4779 8.55346C81.4779 8.44245 81.4779 8.33143 81.4779 8.22041C81.4779 7.22128 81.3668 6.44417 81.1446 5.77807C81.9224 6.0001 82.5891 6.99924 82.9225 8.1094ZM90.1451 9.88565C90.1451 9.77463 90.034 9.66362 89.9229 9.66362C89.7007 9.66362 87.3671 9.44159 87.3671 9.44159C87.3671 9.44159 85.7004 7.77635 85.4782 7.66534C85.2559 7.4433 84.9226 7.55432 84.8115 7.55432C84.8115 7.55432 84.4781 7.66534 83.9225 7.88737C83.367 6.33315 82.3668 4.88995 80.7001 4.88995H80.589C80.1445 4.22385 79.4779 4.00182 78.9222 4.00182C74.922 3.8908 73.033 8.88651 72.3663 11.4399C71.4773 11.6619 70.5884 11.995 69.5884 12.328C68.6994 12.55 68.6994 12.661 68.5883 13.4382C68.4772 13.9932 66.2548 31.5337 66.2548 31.5337L83.9225 34.8642L93.4786 32.7549C93.4786 32.7549 90.1451 10.1077 90.1451 9.88565Z" fill="#8DB849"/>
<path d="M89.8124 9.6635C89.7014 9.6635 87.3678 9.44146 87.3678 9.44146C87.3678 9.44146 85.7011 7.77623 85.4789 7.66522C85.3678 7.5542 85.3678 7.5542 85.2566 7.5542L83.9232 34.864L93.4793 32.7547C93.4793 32.7547 90.1458 10.1076 90.1458 9.88553C90.1458 9.77451 89.9236 9.6635 89.8124 9.6635Z" fill="#5A863E"/>
<path d="M80.7009 14.9923L79.4786 18.5448C79.4786 18.5448 78.4785 17.9897 77.1451 17.9897C75.2562 17.9897 75.145 19.0998 75.145 19.4329C75.145 20.9871 79.3675 21.6532 79.3675 25.4277C79.3675 28.4252 77.4785 30.3124 74.9228 30.3124C71.9226 30.3124 70.3669 28.4252 70.3669 28.4252L71.1448 25.7608C71.1448 25.7608 72.7005 27.0929 74.0339 27.0929C74.9228 27.0929 75.2562 26.4268 75.2562 25.8718C75.2562 23.7625 71.8115 23.6515 71.8115 20.21C71.8115 17.3236 73.9227 14.5482 78.0341 14.5482C79.9231 14.4372 80.7009 14.9923 80.7009 14.9923Z" fill="#ffffffFFE"/>
<path d="M104.702 21.5424C103.702 20.9873 103.257 20.5433 103.257 19.9882C103.257 19.211 103.924 18.767 105.035 18.767C106.257 18.767 107.368 19.3221 107.368 19.3221L108.257 16.6577C108.257 16.6577 107.48 15.9916 105.146 15.9916C101.813 15.9916 99.5903 17.8789 99.5903 20.5433C99.5903 22.0975 100.701 23.2076 102.035 23.9847C103.146 24.6508 103.59 25.0949 103.59 25.761C103.59 26.4271 103.035 27.0932 101.924 27.0932C100.368 27.0932 98.8124 26.316 98.8124 26.316L97.9235 28.9805C97.9235 28.9805 99.2569 29.8686 101.59 29.8686C104.924 29.8686 107.368 28.2033 107.368 25.2059C107.368 23.5407 106.146 22.3195 104.702 21.5424ZM118.147 15.8806C116.48 15.8806 115.146 16.6577 114.147 17.8789L115.591 10.3298H111.813L108.146 29.5355H111.924L113.147 22.9856C113.591 20.5433 114.924 18.989 116.147 18.989C117.035 18.989 117.369 19.5441 117.369 20.4322C117.369 20.9873 117.369 21.5424 117.258 22.0975L115.813 29.6466H119.591L121.036 21.8755C121.147 21.0983 121.258 20.0992 121.258 19.4331C121.258 17.2128 120.147 15.8806 118.147 15.8806ZM127.814 26.8712C126.481 26.8712 126.036 25.761 126.036 24.4288C126.036 22.3195 127.147 18.767 129.147 18.767C130.481 18.767 130.925 19.8772 130.925 20.9873C130.925 23.4296 129.814 26.8712 127.814 26.8712ZM129.703 15.8806C125.148 15.8806 122.147 19.9882 122.147 24.5398C122.147 27.4262 123.925 29.7576 127.37 29.7576C131.815 29.7576 134.814 25.761 134.814 21.0983C134.814 18.434 133.259 15.8806 129.703 15.8806ZM140.815 26.9821C139.814 26.9821 139.259 26.4271 139.259 26.4271L139.926 22.8746C140.371 20.5433 141.593 18.989 142.927 18.989C144.037 18.989 144.482 20.0992 144.482 21.0983C144.371 23.5407 142.927 26.9821 140.815 26.9821ZM144.482 15.8806C141.926 15.8806 140.481 18.1009 140.481 18.1009L140.704 16.1026H137.37C137.259 17.4348 136.926 19.5442 136.593 21.0983L133.926 34.8643H137.703L138.704 29.3135H138.815C138.815 29.3135 139.592 29.7576 141.037 29.7576C145.482 29.7576 148.37 25.2059 148.37 20.6542C148.37 18.2119 147.26 15.8806 144.482 15.8806ZM153.705 10.5518C152.482 10.5518 151.593 11.551 151.593 12.7722C151.593 13.8824 152.26 14.6594 153.372 14.6594C154.594 14.6594 155.594 13.8823 155.594 12.4391C155.594 11.329 154.816 10.5518 153.705 10.5518ZM148.482 29.5355H152.26L154.816 16.2136H151.038L148.482 29.5355ZM164.372 16.2136H161.705L161.816 15.5476C162.038 14.2154 162.816 13.1052 164.039 13.1052C164.705 13.1052 165.261 13.3272 165.261 13.3272L166.039 10.3298C166.039 10.3298 165.372 9.99677 164.039 9.99677C162.705 9.99677 161.371 10.3298 160.371 11.2179C159.038 12.3281 158.482 13.8824 158.149 15.4365L158.038 16.1026H156.26L155.704 18.989H157.483L155.482 29.5355H159.26L161.261 18.989H163.817L164.372 16.2136ZM173.372 16.2136C173.372 16.2136 171.039 22.0975 169.927 25.3169C169.817 24.3178 169.039 16.2136 169.039 16.2136H165.039L167.261 28.4253C167.261 28.6474 167.261 28.8694 167.15 29.0914C166.705 29.9796 165.928 30.7567 165.149 31.3118C164.483 31.8669 163.594 32.1999 163.038 32.4219L164.039 35.6414C164.816 35.5304 166.372 34.8643 167.705 33.6431C169.372 32.0889 171.039 29.5355 172.595 26.2051L177.15 16.3247L173.372 16.2136Z" fill="#1A1919"/>
</svg>
