<svg width="171" height="40" viewBox="0 0 171 40" fill="none" xmlns="http://www.w3.org/2000/svg">
<rect width="40" height="40" rx="8" fill="url(#paint0_linear_241_118811)"/>
<path fill-rule="evenodd" clip-rule="evenodd" d="M14.4987 17.7518C14.5547 17.8861 14.665 17.9897 14.8007 18.0358L20.3348 19.9119C20.4041 19.9354 20.4766 19.9427 20.5471 19.9344C20.6142 19.9264 20.6794 19.9044 20.7385 19.8686L25.5416 16.964C25.6701 16.8863 25.7557 16.7523 25.7739 16.6006C25.7921 16.4488 25.7409 16.2959 25.6349 16.1858L19.0817 9.37565C18.9697 9.2594 18.8105 9.20457 18.6536 9.22885C18.497 9.25306 18.3626 9.35316 18.2929 9.49749L14.509 17.3362C14.4465 17.4657 14.4427 17.6174 14.4987 17.7518Z" fill="url(#paint1_linear_241_118811)"/>
<path fill-rule="evenodd" clip-rule="evenodd" d="M20.8516 21.384C20.826 21.1956 20.6981 21.0368 20.5215 20.9739L5.93008 15.7853C5.72771 15.7133 5.50463 15.7823 5.37834 15.956C5.25214 16.1297 5.25174 16.3681 5.37739 16.5458L12.5996 26.757C12.7087 26.9113 12.8874 26.9855 13.0599 26.9651C13.1341 26.9563 13.2071 26.93 13.273 26.8851L20.6422 21.8626C20.7961 21.7577 20.8771 21.5723 20.8516 21.384Z" fill="#7375FD"/>
<path fill-rule="evenodd" clip-rule="evenodd" d="M34.6582 12.3566C34.4928 12.2153 34.2582 12.1984 34.0787 12.3147L12.8644 26.0506C12.6723 26.175 12.5918 26.4188 12.6703 26.639C12.7488 26.8593 12.9653 26.9963 13.1924 26.9706L29.69 25.0976L29.6924 25.0973C29.8683 25.0765 30.0184 24.9621 30.0847 24.7952L34.8014 12.9321C34.8815 12.7307 34.8235 12.4977 34.6582 12.3566Z" fill="url(#paint2_linear_241_118811)"/>
<rect x="0.25" y="0.25" width="39.5" height="39.5" rx="7.75" stroke="#02058D" stroke-opacity="0.1" stroke-width="0.5"/>
<path d="M54.28 28.74C53.24 28.74 52.3 28.4933 51.46 28C50.6333 27.4933 49.98 26.8067 49.5 25.94C49.02 25.0733 48.78 24.1133 48.78 23.06C48.78 22.0067 49.02 21.0467 49.5 20.18C49.98 19.3133 50.64 18.6333 51.48 18.14C52.32 17.6333 53.2467 17.38 54.26 17.38C54.9533 17.38 55.5867 17.5 56.16 17.74C56.7333 17.9667 57.2133 18.2933 57.6 18.72V13.36H60.22V28.5H57.74V27.3C57.34 27.7667 56.84 28.1267 56.24 28.38C55.64 28.62 54.9867 28.74 54.28 28.74ZM51.5 23.06C51.5 23.6867 51.6267 24.2533 51.88 24.76C52.1467 25.2533 52.5133 25.64 52.98 25.92C53.4467 26.2 53.9733 26.34 54.56 26.34C55.1467 26.34 55.6667 26.2 56.12 25.92C56.5867 25.64 56.9467 25.2533 57.2 24.76C57.4667 24.2533 57.6 23.6867 57.6 23.06C57.6 22.4333 57.4667 21.8733 57.2 21.38C56.9467 20.8733 56.5867 20.48 56.12 20.2C55.6533 19.92 55.1333 19.78 54.56 19.78C53.9733 19.78 53.4467 19.9267 52.98 20.22C52.5133 20.5 52.1467 20.8933 51.88 21.4C51.6267 21.8933 51.5 22.4467 51.5 23.06ZM67.4175 28.74C66.3242 28.74 65.3508 28.4867 64.4975 27.98C63.6575 27.4733 62.9975 26.7867 62.5175 25.92C62.0508 25.0533 61.8175 24.0933 61.8175 23.04C61.8175 21.9733 62.0508 21.0133 62.5175 20.16C62.9975 19.2933 63.6442 18.6133 64.4575 18.12C65.2842 17.6267 66.2042 17.38 67.2175 17.38C68.3108 17.38 69.2575 17.62 70.0575 18.1C70.8575 18.5667 71.4642 19.2067 71.8775 20.02C72.3042 20.8333 72.5175 21.7267 72.5175 22.7C72.5175 23.1533 72.4708 23.52 72.3775 23.8H64.5375C64.6175 24.6 64.9242 25.24 65.4575 25.72C65.9908 26.2 66.6508 26.44 67.4375 26.44C68.0242 26.44 68.5242 26.32 68.9375 26.08C69.3642 25.8267 69.7042 25.48 69.9575 25.04L72.0775 26.08C71.7442 26.88 71.1575 27.5267 70.3175 28.02C69.4775 28.5 68.5108 28.74 67.4175 28.74ZM69.7175 21.8C69.6508 21.1333 69.3908 20.5933 68.9375 20.18C68.4842 19.7533 67.9108 19.54 67.2175 19.54C66.5508 19.54 65.9842 19.74 65.5175 20.14C65.0508 20.5267 64.7442 21.08 64.5975 21.8H69.7175ZM78.1836 28.72C77.0903 28.72 76.1236 28.46 75.2836 27.94C74.4569 27.42 73.8703 26.7067 73.5236 25.8L75.4636 24.8C75.7569 25.3867 76.1436 25.8467 76.6236 26.18C77.1169 26.5 77.6569 26.66 78.2436 26.66C78.7503 26.66 79.1436 26.56 79.4236 26.36C79.7169 26.1467 79.8636 25.86 79.8636 25.5C79.8636 25.1933 79.7436 24.94 79.5036 24.74C79.2636 24.5267 78.9503 24.3867 78.5636 24.32L76.7836 24.02C75.8636 23.78 75.1503 23.3733 74.6436 22.8C74.1503 22.2133 73.9036 21.5267 73.9036 20.74C73.9036 20.0867 74.0769 19.5067 74.4236 19C74.7703 18.48 75.2503 18.08 75.8636 17.8C76.4903 17.52 77.1969 17.38 77.9836 17.38C78.9836 17.38 79.8636 17.62 80.6236 18.1C81.3836 18.5667 81.9369 19.22 82.2836 20.06L80.3436 21.06C80.1303 20.5933 79.8036 20.22 79.3636 19.94C78.9236 19.66 78.4369 19.52 77.9036 19.52C77.4636 19.52 77.1103 19.62 76.8436 19.82C76.5903 20.02 76.4636 20.28 76.4636 20.6C76.4636 21.1867 76.9036 21.58 77.7836 21.78L79.5236 22.1C80.4436 22.3533 81.1569 22.7667 81.6636 23.34C82.1703 23.9133 82.4236 24.5933 82.4236 25.38C82.4236 26.0333 82.2436 26.6133 81.8836 27.12C81.5369 27.6267 81.0436 28.02 80.4036 28.3C79.7636 28.58 79.0236 28.72 78.1836 28.72ZM83.977 17.62H86.597V28.5H83.977V17.62ZM83.777 14.62C83.777 14.14 83.9104 13.7667 84.177 13.5C84.4437 13.2333 84.8104 13.1 85.277 13.1C85.757 13.1 86.1304 13.2333 86.397 13.5C86.6637 13.7667 86.797 14.14 86.797 14.62C86.797 15.0867 86.6637 15.4533 86.397 15.72C86.1437 15.9867 85.7704 16.12 85.277 16.12C84.8104 16.12 84.4437 15.9867 84.177 15.72C83.9104 15.4533 83.777 15.0867 83.777 14.62ZM93.8961 32.9C92.6694 32.9 91.5894 32.6067 90.6561 32.02C89.7361 31.4467 89.1028 30.68 88.7561 29.72L91.1961 28.8C91.3561 29.32 91.6761 29.7333 92.1561 30.04C92.6361 30.3467 93.2161 30.5 93.8961 30.5C94.6961 30.5 95.3428 30.2733 95.8361 29.82C96.3428 29.3667 96.5961 28.7467 96.5961 27.96V26.78C95.8228 27.6333 94.7761 28.06 93.4561 28.06C92.4561 28.06 91.5494 27.8267 90.7361 27.36C89.9361 26.8933 89.3094 26.2533 88.8561 25.44C88.4028 24.6267 88.1761 23.7133 88.1761 22.7C88.1761 21.6867 88.3961 20.78 88.8361 19.98C89.2894 19.1667 89.9161 18.5333 90.7161 18.08C91.5161 17.6133 92.4094 17.38 93.3961 17.38C94.7961 17.38 95.9094 17.8733 96.7361 18.86V17.62H99.2161V27.96C99.2161 28.9067 98.9894 29.7533 98.5361 30.5C98.0828 31.26 97.4494 31.8467 96.6361 32.26C95.8361 32.6867 94.9228 32.9 93.8961 32.9ZM90.8961 22.72C90.8961 23.56 91.1628 24.26 91.6961 24.82C92.2428 25.3667 92.9361 25.64 93.7761 25.64C94.6028 25.64 95.2761 25.3667 95.7961 24.82C96.3294 24.2733 96.5961 23.5733 96.5961 22.72C96.5961 21.8667 96.3294 21.1667 95.7961 20.62C95.2628 20.06 94.5894 19.78 93.7761 19.78C92.9494 19.78 92.2628 20.06 91.7161 20.62C91.1694 21.18 90.8961 21.88 90.8961 22.72ZM101.263 17.62H103.723V18.96C104.003 18.4533 104.41 18.0667 104.943 17.8C105.49 17.52 106.11 17.38 106.803 17.38C107.59 17.38 108.296 17.5533 108.923 17.9C109.55 18.2467 110.036 18.7333 110.383 19.36C110.73 19.9867 110.903 20.7 110.903 21.5V28.5H108.283V22.12C108.283 21.4133 108.076 20.8467 107.663 20.42C107.263 19.9933 106.736 19.78 106.083 19.78C105.43 19.78 104.896 19.9933 104.483 20.42C104.083 20.8467 103.883 21.4133 103.883 22.12V28.5H101.263V17.62ZM117.878 28.74C116.785 28.74 115.812 28.4867 114.958 27.98C114.118 27.4733 113.458 26.7867 112.978 25.92C112.512 25.0533 112.278 24.0933 112.278 23.04C112.278 21.9733 112.512 21.0133 112.978 20.16C113.458 19.2933 114.105 18.6133 114.918 18.12C115.745 17.6267 116.665 17.38 117.678 17.38C118.772 17.38 119.718 17.62 120.518 18.1C121.318 18.5667 121.925 19.2067 122.338 20.02C122.765 20.8333 122.978 21.7267 122.978 22.7C122.978 23.1533 122.932 23.52 122.838 23.8H114.998C115.078 24.6 115.385 25.24 115.918 25.72C116.452 26.2 117.112 26.44 117.898 26.44C118.485 26.44 118.985 26.32 119.398 26.08C119.825 25.8267 120.165 25.48 120.418 25.04L122.538 26.08C122.205 26.88 121.618 27.5267 120.778 28.02C119.938 28.5 118.972 28.74 117.878 28.74ZM120.178 21.8C120.112 21.1333 119.852 20.5933 119.398 20.18C118.945 19.7533 118.372 19.54 117.678 19.54C117.012 19.54 116.445 19.74 115.978 20.14C115.512 20.5267 115.205 21.08 115.058 21.8H120.178ZM124.565 17.62H127.025V19.14C127.291 18.5533 127.671 18.1333 128.165 17.88C128.658 17.6267 129.258 17.5 129.965 17.5H130.605V19.82H129.665C128.918 19.82 128.318 20.0533 127.865 20.52C127.411 20.9867 127.185 21.6267 127.185 22.44V28.5H124.565V17.62Z" fill="#1B1F23"/>
<path d="M135.725 28.72C134.632 28.72 133.665 28.46 132.825 27.94C131.998 27.42 131.412 26.7067 131.065 25.8L133.005 24.8C133.298 25.3867 133.685 25.8467 134.165 26.18C134.658 26.5 135.198 26.66 135.785 26.66C136.292 26.66 136.685 26.56 136.965 26.36C137.258 26.1467 137.405 25.86 137.405 25.5C137.405 25.1933 137.285 24.94 137.045 24.74C136.805 24.5267 136.492 24.3867 136.105 24.32L134.325 24.02C133.405 23.78 132.692 23.3733 132.185 22.8C131.692 22.2133 131.445 21.5267 131.445 20.74C131.445 20.0867 131.618 19.5067 131.965 19C132.312 18.48 132.792 18.08 133.405 17.8C134.032 17.52 134.738 17.38 135.525 17.38C136.525 17.38 137.405 17.62 138.165 18.1C138.925 18.5667 139.478 19.22 139.825 20.06L137.885 21.06C137.672 20.5933 137.345 20.22 136.905 19.94C136.465 19.66 135.978 19.52 135.445 19.52C135.005 19.52 134.652 19.62 134.385 19.82C134.132 20.02 134.005 20.28 134.005 20.6C134.005 21.1867 134.445 21.58 135.325 21.78L137.065 22.1C137.985 22.3533 138.698 22.7667 139.205 23.34C139.712 23.9133 139.965 24.5933 139.965 25.38C139.965 26.0333 139.785 26.6133 139.425 27.12C139.078 27.6267 138.585 28.02 137.945 28.3C137.305 28.58 136.565 28.72 135.725 28.72ZM141.518 13.36H144.138V18.7C144.445 18.2733 144.852 17.9467 145.358 17.72C145.865 17.4933 146.432 17.38 147.058 17.38C147.845 17.38 148.552 17.5533 149.178 17.9C149.805 18.2467 150.292 18.7333 150.638 19.36C150.985 19.9867 151.158 20.7 151.158 21.5V28.5H148.538V22.12C148.538 21.4133 148.332 20.8467 147.918 20.42C147.518 19.9933 146.992 19.78 146.338 19.78C145.698 19.78 145.172 19.9933 144.758 20.42C144.345 20.8467 144.138 21.4133 144.138 22.12V28.5H141.518V13.36ZM152.974 17.62H155.594V28.5H152.974V17.62ZM152.774 14.62C152.774 14.14 152.907 13.7667 153.174 13.5C153.441 13.2333 153.807 13.1 154.274 13.1C154.754 13.1 155.127 13.2333 155.394 13.5C155.661 13.7667 155.794 14.14 155.794 14.62C155.794 15.0867 155.661 15.4533 155.394 15.72C155.141 15.9867 154.767 16.12 154.274 16.12C153.807 16.12 153.441 15.9867 153.174 15.72C152.907 15.4533 152.774 15.0867 152.774 14.62ZM157.613 17.62H160.073V18.9C160.473 18.42 160.966 18.0467 161.553 17.78C162.153 17.5133 162.826 17.38 163.573 17.38C164.586 17.38 165.513 17.6333 166.353 18.14C167.193 18.6333 167.853 19.3133 168.333 20.18C168.813 21.0467 169.053 22.0067 169.053 23.06C169.053 24.1133 168.813 25.0733 168.333 25.94C167.853 26.8067 167.193 27.4933 166.353 28C165.526 28.4933 164.593 28.74 163.553 28.74C162.886 28.74 162.266 28.6333 161.693 28.42C161.12 28.1933 160.633 27.8733 160.233 27.46V32.5H157.613V17.62ZM160.233 23.06C160.233 23.6867 160.36 24.2533 160.613 24.76C160.88 25.2533 161.24 25.64 161.693 25.92C162.16 26.2 162.68 26.34 163.253 26.34C164.146 26.34 164.88 26.0333 165.453 25.42C166.04 24.7933 166.333 24.0067 166.333 23.06C166.333 22.4467 166.2 21.8933 165.933 21.4C165.666 20.8933 165.3 20.5 164.833 20.22C164.366 19.9267 163.84 19.78 163.253 19.78C162.68 19.78 162.16 19.92 161.693 20.2C161.24 20.48 160.88 20.8733 160.613 21.38C160.36 21.8733 160.233 22.4333 160.233 23.06Z" fill="#959DA5"/>
<defs>
<linearGradient id="paint0_linear_241_118811" x1="20" y1="0" x2="20" y2="40" gradientUnits="userSpaceOnUse">
<stop stop-color="#F5F5FF"/>
<stop offset="1" stop-color="#E1E1FE"/>
</linearGradient>
<linearGradient id="paint1_linear_241_118811" x1="19.1155" y1="9.17387" x2="20.3916" y2="19.9528" gradientUnits="userSpaceOnUse">
<stop stop-color="#7375FD"/>
<stop offset="1" stop-color="#1E22FB"/>
</linearGradient>
<linearGradient id="paint2_linear_241_118811" x1="22.9718" y1="13.581" x2="24.4101" y2="25.7231" gradientUnits="userSpaceOnUse">
<stop stop-color="#1E22FB"/>
<stop offset="1" stop-color="#7375FD"/>
</linearGradient>
</defs>
</svg>
